<svg width="256" height="256" viewBox="0 0 256 256" fill="none" xmlns="http://www.w3.org/2000/svg">
<rect width="256" height="256" rx="10" fill="#7D4F50"/>
<path d="M73.2245 47.0762V81H69.9277V65.137H49.8123V81H46.4677V47.0762H49.8123V62.1747H69.9277V47.0762H73.2245ZM91.4511 81.4778C89.6673 81.4778 88.0109 81.1433 86.482 80.4744C84.953 79.7736 83.6311 78.834 82.5162 77.6554C81.4014 76.445 80.5254 75.0594 79.8883 73.4985C79.2831 71.9377 78.9805 70.2654 78.9805 68.4816C78.9805 66.1563 79.5061 64.0222 80.5573 62.0791C81.6403 60.1361 83.1214 58.5912 85.0008 57.4445C86.8801 56.2659 89.0143 55.6766 91.4033 55.6766C93.856 55.6766 95.9902 56.2659 97.8058 57.4445C99.6533 58.623 101.103 60.1838 102.154 62.1269C103.205 64.0381 103.731 66.1404 103.731 68.4339C103.731 68.6887 103.731 68.9435 103.731 69.1983C103.731 69.4213 103.715 69.5965 103.683 69.7239H82.3729C82.5322 71.5077 83.0259 73.1004 83.8541 74.5019C84.7141 75.8716 85.8131 76.9706 87.1509 77.7987C88.5206 78.5951 90.0018 78.9932 91.5944 78.9932C93.219 78.9932 94.7479 78.5791 96.1813 77.751C97.6466 76.9228 98.6659 75.8398 99.2392 74.5019L102.058 75.2664C101.549 76.445 100.768 77.5121 99.717 78.4677C98.6659 79.4233 97.4236 80.1718 95.9902 80.7133C94.5886 81.223 93.0756 81.4778 91.4511 81.4778ZM82.2773 67.3827H100.673C100.545 65.5671 100.051 63.9744 99.1915 62.6047C98.3633 61.235 97.2643 60.1679 95.8946 59.4034C94.5568 58.6071 93.0756 58.2089 91.4511 58.2089C89.8266 58.2089 88.3454 58.6071 87.0076 59.4034C85.6697 60.1679 84.5708 61.2509 83.7107 62.6525C82.8825 64.0222 82.4047 65.5989 82.2773 67.3827ZM106.737 73.833C106.737 72.2722 107.183 70.9343 108.074 69.8195C108.966 68.6728 110.193 67.7968 111.753 67.1916C113.346 66.5545 115.178 66.236 117.248 66.236C118.459 66.236 119.717 66.3315 121.023 66.5227C122.329 66.7138 123.491 67.0005 124.511 67.3827V65.2804C124.511 63.1781 123.89 61.5058 122.647 60.2635C121.405 59.0212 119.685 58.4001 117.487 58.4001C116.149 58.4001 114.827 58.6549 113.521 59.1645C112.247 59.6423 110.909 60.359 109.508 61.3146L108.266 59.0212C109.89 57.9063 111.483 57.0781 113.044 56.5366C114.604 55.9633 116.197 55.6766 117.822 55.6766C120.879 55.6766 123.3 56.5526 125.084 58.3045C126.868 60.0564 127.76 62.4773 127.76 65.5671V77.082C127.76 77.528 127.855 77.8624 128.046 78.0854C128.238 78.2765 128.54 78.388 128.954 78.4199V81C128.604 81.0319 128.301 81.0637 128.046 81.0956C127.792 81.1274 127.601 81.1274 127.473 81.0956C126.677 81.0637 126.072 80.8089 125.657 80.3311C125.243 79.8533 125.02 79.3436 124.989 78.8021L124.941 76.9865C123.826 78.4199 122.377 79.5347 120.593 80.3311C118.809 81.0956 116.993 81.4778 115.146 81.4778C113.553 81.4778 112.104 81.1433 110.798 80.4744C109.524 79.7736 108.52 78.8499 107.788 77.7032C107.087 76.5246 106.737 75.2345 106.737 73.833ZM123.412 75.7442C123.762 75.2983 124.033 74.8682 124.224 74.4541C124.415 74.04 124.511 73.6737 124.511 73.3552V69.7239C123.428 69.3098 122.297 68.9913 121.118 68.7683C119.972 68.5453 118.809 68.4339 117.63 68.4339C115.305 68.4339 113.426 68.8957 111.992 69.8195C110.559 70.7432 109.842 72.0014 109.842 73.5941C109.842 74.5178 110.081 75.3938 110.559 76.222C111.037 77.0183 111.738 77.6873 112.661 78.2288C113.585 78.7384 114.668 78.9932 115.91 78.9932C117.471 78.9932 118.92 78.6906 120.258 78.0854C121.628 77.4802 122.679 76.6998 123.412 75.7442ZM134.923 46.1206H138.172V75.362C138.172 76.6042 138.395 77.4165 138.841 77.7987C139.287 78.181 139.828 78.3721 140.466 78.3721C141.039 78.3721 141.612 78.3084 142.186 78.181C142.759 78.0536 143.253 77.9262 143.667 77.7987L144.24 80.4266C143.635 80.6815 142.886 80.8885 141.994 81.0478C141.134 81.207 140.386 81.2867 139.749 81.2867C138.284 81.2867 137.105 80.8567 136.213 79.9966C135.353 79.1366 134.923 77.958 134.923 76.4609V46.1206ZM178.52 81V53.3832L166.241 74.8364H164.139L151.811 53.3832V81H148.467V47.0762H151.907L165.142 70.2973L178.473 47.0762H181.865V81H178.52ZM200.076 81.4778C198.292 81.4778 196.636 81.1433 195.107 80.4744C193.578 79.7736 192.256 78.834 191.141 77.6554C190.026 76.445 189.15 75.0594 188.513 73.4985C187.908 71.9377 187.605 70.2654 187.605 68.4816C187.605 66.1563 188.131 64.0222 189.182 62.0791C190.265 60.1361 191.746 58.5912 193.626 57.4445C195.505 56.2659 197.639 55.6766 200.028 55.6766C202.481 55.6766 204.615 56.2659 206.431 57.4445C208.278 58.623 209.728 60.1838 210.779 62.1269C211.83 64.0381 212.355 66.1404 212.355 68.4339C212.355 68.6887 212.355 68.9435 212.355 69.1983C212.355 69.4213 212.339 69.5965 212.308 69.7239H190.998C191.157 71.5077 191.651 73.1004 192.479 74.5019C193.339 75.8716 194.438 76.9706 195.776 77.7987C197.145 78.5951 198.627 78.9932 200.219 78.9932C201.844 78.9932 203.373 78.5791 204.806 77.751C206.271 76.9228 207.291 75.8398 207.864 74.5019L210.683 75.2664C210.173 76.445 209.393 77.5121 208.342 78.4677C207.291 79.4233 206.048 80.1718 204.615 80.7133C203.213 81.223 201.7 81.4778 200.076 81.4778ZM190.902 67.3827H209.297C209.17 65.5671 208.676 63.9744 207.816 62.6047C206.988 61.235 205.889 60.1679 204.519 59.4034C203.182 58.6071 201.7 58.2089 200.076 58.2089C198.451 58.2089 196.97 58.6071 195.632 59.4034C194.295 60.1679 193.196 61.2509 192.336 62.6525C191.507 64.0222 191.03 65.5989 190.902 67.3827Z" fill="#F8F8F8"/>
<path d="M153 113C142.675 113 133.635 117.44 128 124.945C122.365 117.44 113.325 113 103 113C94.7811 113.009 86.9015 116.278 81.0899 122.09C75.2783 127.902 72.0093 135.781 72 144C72 179 123.895 207.33 126.105 208.5C126.687 208.813 127.339 208.977 128 208.977C128.661 208.977 129.313 208.813 129.895 208.5C132.105 207.33 184 179 184 144C183.991 135.781 180.722 127.902 174.91 122.09C169.098 116.278 161.219 113.009 153 113ZM128 200.4C118.87 195.08 80 170.845 80 144C80.0079 137.902 82.4337 132.057 86.7453 127.745C91.0569 123.434 96.9025 121.008 103 121C112.725 121 120.89 126.18 124.3 134.5C124.601 135.234 125.114 135.861 125.773 136.303C126.432 136.744 127.207 136.98 128 136.98C128.793 136.98 129.568 136.744 130.227 136.303C130.886 135.861 131.399 135.234 131.7 134.5C135.11 126.165 143.275 121 153 121C159.098 121.008 164.943 123.434 169.255 127.745C173.566 132.057 175.992 137.902 176 144C176 170.805 137.12 195.075 128 200.4Z" fill="#F8F8F8"/>
</svg>
