<svg width="152" height="48" viewBox="0 0 152 48" fill="none" xmlns="http://www.w3.org/2000/svg">
<path fill-rule="evenodd" clip-rule="evenodd" d="M127.184 0C140.889 0 152 10.7452 152 24C152 37.2548 140.889 48 127.184 48H24.8163C11.1106 48 0 37.2548 0 24C0 10.7452 11.1106 0 24.8163 0H127.184Z" fill="#7D4F50"/>
<path opacity="0.79" d="M34.9217 13.6416V30H32.8481V22.5581H23.8395V30H21.7659V13.6416H23.8395V20.7149H32.8481V13.6416H34.9217ZM43.6406 30.2304C42.7343 30.2304 41.9049 30.0691 41.1523 29.7466C40.415 29.4086 39.7699 28.9555 39.2169 28.3872C38.6793 27.8035 38.2569 27.1354 37.9497 26.3827C37.6579 25.6301 37.5119 24.8314 37.5119 23.9866C37.5119 22.8499 37.7731 21.8131 38.2953 20.8762C38.8175 19.9392 39.5395 19.1866 40.4611 18.6182C41.398 18.0499 42.4655 17.7658 43.6636 17.7658C44.8771 17.7658 45.9292 18.0576 46.8201 18.6413C47.7263 19.2096 48.4252 19.9622 48.9167 20.8992C49.4236 21.8208 49.6771 22.8192 49.6771 23.8944C49.6771 24.048 49.6694 24.2016 49.654 24.3552C49.654 24.4934 49.6463 24.601 49.631 24.6778H39.6547C39.7161 25.4611 39.9311 26.16 40.2998 26.7744C40.6838 27.3734 41.1753 27.8496 41.7743 28.2029C42.3734 28.5408 43.0185 28.7098 43.7097 28.7098C44.447 28.7098 45.1382 28.5254 45.7833 28.1568C46.4438 27.7882 46.8969 27.3043 47.1427 26.7053L48.8937 27.1891C48.6326 27.7728 48.2409 28.295 47.7187 28.7558C47.2118 29.2166 46.6051 29.5776 45.8985 29.8387C45.2073 30.0998 44.4547 30.2304 43.6406 30.2304ZM39.5855 23.2723H47.7878C47.7263 22.489 47.5036 21.7978 47.1196 21.1987C46.7356 20.5997 46.2441 20.1312 45.6451 19.7933C45.046 19.4554 44.3855 19.2864 43.6636 19.2864C42.9571 19.2864 42.3043 19.4554 41.7052 19.7933C41.1062 20.1312 40.6147 20.5997 40.2307 21.1987C39.862 21.7978 39.647 22.489 39.5855 23.2723ZM50.9862 26.521C50.9862 25.753 51.2012 25.0925 51.6313 24.5395C52.0768 23.9712 52.6835 23.5334 53.4515 23.2262C54.2195 22.919 55.1104 22.7654 56.1241 22.7654C56.6617 22.7654 57.23 22.8115 57.8291 22.9037C58.4281 22.9805 58.958 23.1034 59.4188 23.2723V22.3968C59.4188 21.4752 59.1424 20.7533 58.5894 20.231C58.0364 19.6934 57.2531 19.4246 56.2393 19.4246C55.5788 19.4246 54.9414 19.5475 54.327 19.7933C53.728 20.0237 53.0905 20.3616 52.4147 20.807L51.6774 19.3786C52.4608 18.841 53.2441 18.4416 54.0275 18.1805C54.8108 17.904 55.6249 17.7658 56.4697 17.7658C58.0057 17.7658 59.2192 18.1958 60.11 19.056C61.0009 19.9008 61.4464 21.0835 61.4464 22.6042V27.696C61.4464 27.9418 61.4924 28.1261 61.5846 28.249C61.6921 28.3565 61.8611 28.4179 62.0915 28.4333V30C61.8918 30.0307 61.7152 30.0538 61.5616 30.0691C61.4233 30.0845 61.3081 30.0922 61.216 30.0922C60.7398 30.0922 60.3788 29.9616 60.1331 29.7005C59.9027 29.4394 59.7721 29.1629 59.7414 28.871L59.6953 28.1107C59.1731 28.7866 58.4896 29.3088 57.6448 29.6774C56.8 30.0461 55.9628 30.2304 55.1334 30.2304C54.3347 30.2304 53.6204 30.0691 52.9907 29.7466C52.3609 29.4086 51.8694 28.9632 51.5161 28.4102C51.1628 27.8419 50.9862 27.2122 50.9862 26.521ZM58.8198 27.3734C59.0041 27.1584 59.15 26.9434 59.2576 26.7283C59.3651 26.4979 59.4188 26.3059 59.4188 26.1523V24.6547C58.9427 24.4704 58.4435 24.3322 57.9212 24.24C57.399 24.1325 56.8844 24.0787 56.3776 24.0787C55.3484 24.0787 54.5113 24.2861 53.8662 24.7008C53.2364 25.1002 52.9216 25.6531 52.9216 26.3597C52.9216 26.7437 53.0214 27.12 53.2211 27.4886C53.4361 27.8419 53.7433 28.1338 54.1427 28.3642C54.5574 28.5946 55.0643 28.7098 55.6633 28.7098C56.2931 28.7098 56.8921 28.5869 57.4604 28.3411C58.0288 28.08 58.4819 27.7574 58.8198 27.3734ZM64.7344 13.1808H66.7619V26.8896C66.7619 27.5501 66.8541 27.9571 67.0384 28.1107C67.2227 28.2643 67.4455 28.3411 67.7066 28.3411C68.0291 28.3411 68.3363 28.3104 68.6282 28.249C68.92 28.1722 69.1658 28.0954 69.3655 28.0186L69.688 29.6774C69.3501 29.8157 68.9507 29.9309 68.4899 30.023C68.0291 30.1152 67.6221 30.1613 67.2688 30.1613C66.4855 30.1613 65.8634 29.9386 65.4026 29.4931C64.9571 29.0477 64.7344 28.4256 64.7344 27.6269V13.1808ZM85.75 30V17.5123L80.3586 27.12H79.0914L73.677 17.5123V30H71.6034V13.6416H73.7922L79.7135 24.263L85.6578 13.6416H87.8236V30H85.75ZM96.5381 30.2304C95.6318 30.2304 94.8024 30.0691 94.0498 29.7466C93.3125 29.4086 92.6674 28.9555 92.1144 28.3872C91.5768 27.8035 91.1544 27.1354 90.8472 26.3827C90.5554 25.6301 90.4094 24.8314 90.4094 23.9866C90.4094 22.8499 90.6706 21.8131 91.1928 20.8762C91.715 19.9392 92.437 19.1866 93.3586 18.6182C94.2955 18.0499 95.363 17.7658 96.5611 17.7658C97.7746 17.7658 98.8267 18.0576 99.7176 18.6413C100.624 19.2096 101.323 19.9622 101.814 20.8992C102.321 21.8208 102.575 22.8192 102.575 23.8944C102.575 24.048 102.567 24.2016 102.552 24.3552C102.552 24.4934 102.544 24.601 102.528 24.6778H92.5522C92.6136 25.4611 92.8286 26.16 93.1973 26.7744C93.5813 27.3734 94.0728 27.8496 94.6718 28.2029C95.2709 28.5408 95.916 28.7098 96.6072 28.7098C97.3445 28.7098 98.0357 28.5254 98.6808 28.1568C99.3413 27.7882 99.7944 27.3043 100.04 26.7053L101.791 27.1891C101.53 27.7728 101.138 28.295 100.616 28.7558C100.109 29.2166 99.5026 29.5776 98.796 29.8387C98.1048 30.0998 97.3522 30.2304 96.5381 30.2304ZM92.483 23.2723H100.685C100.624 22.489 100.401 21.7978 100.017 21.1987C99.6331 20.5997 99.1416 20.1312 98.5426 19.7933C97.9435 19.4554 97.283 19.2864 96.5611 19.2864C95.8546 19.2864 95.2018 19.4554 94.6027 19.7933C94.0037 20.1312 93.5122 20.5997 93.1282 21.1987C92.7595 21.7978 92.5445 22.489 92.483 23.2723Z" fill="white"/>
<g clip-path="url(#clip0_0_9)">
<mask id="mask0_0_9" style="mask-type:luminance" maskUnits="userSpaceOnUse" x="117" y="11" width="24" height="24">
<path fill-rule="evenodd" clip-rule="evenodd" d="M117 11H141V35H117V11Z" fill="white"/>
</mask>
<g mask="url(#mask0_0_9)">
<path fill-rule="evenodd" clip-rule="evenodd" d="M124.313 14.75C123.931 14.7504 123.553 14.788 123.179 14.8627C122.805 14.9375 122.442 15.048 122.089 15.1942C121.737 15.3404 121.402 15.5195 121.085 15.7316C120.768 15.9436 120.474 16.1845 120.204 16.4543C119.935 16.7241 119.694 17.0176 119.482 17.3348C119.27 17.6519 119.09 17.9867 118.944 18.3391C118.798 18.6915 118.688 19.0548 118.613 19.429C118.538 19.8031 118.5 20.1809 118.5 20.5625C118.5 27.125 128.23 32.4368 128.645 32.6562C128.756 32.7159 128.874 32.7457 129 32.7457C129.126 32.7457 129.244 32.7159 129.355 32.6562C129.77 32.4368 139.5 27.125 139.5 20.5625C139.5 20.1809 139.462 19.8031 139.387 19.429C139.312 19.0548 139.202 18.6915 139.056 18.3391C138.91 17.9867 138.73 17.6519 138.518 17.3348C138.306 17.0176 138.065 16.7241 137.796 16.4543C137.526 16.1845 137.232 15.9436 136.915 15.7316C136.598 15.5195 136.263 15.3404 135.911 15.1942C135.558 15.048 135.195 14.9375 134.821 14.8627C134.447 14.788 134.069 14.7504 133.687 14.75C131.752 14.75 130.057 15.5825 129 16.9896C127.943 15.5825 126.248 14.75 124.313 14.75V14.75ZM120.084 19.7216C120.139 19.444 120.221 19.1745 120.33 18.913C120.438 18.6516 120.571 18.4032 120.729 18.1679C120.886 17.9326 121.065 17.7149 121.265 17.5147C121.465 17.3146 121.683 17.1359 121.918 16.9785C122.153 16.8212 122.402 16.6883 122.663 16.5798C122.924 16.4713 123.194 16.3893 123.472 16.3338C123.749 16.2783 124.029 16.2504 124.312 16.25C126.136 16.25 127.667 17.2212 128.306 18.7812C128.364 18.9219 128.456 19.0346 128.582 19.1193C128.709 19.2039 128.848 19.2463 129 19.2463C129.152 19.2463 129.291 19.2039 129.418 19.1193C129.544 19.0346 129.636 18.9219 129.694 18.7812C130.333 17.2184 131.864 16.25 133.688 16.25C133.971 16.2504 134.251 16.2783 134.528 16.3338C134.806 16.3893 135.076 16.4713 135.337 16.5798C135.598 16.6883 135.847 16.8212 136.082 16.9785C136.317 17.1359 136.535 17.3146 136.735 17.5147C136.935 17.7149 137.114 17.9326 137.271 18.1679C137.429 18.4032 137.562 18.6516 137.67 18.913C137.779 19.1745 137.861 19.444 137.916 19.7216C137.972 19.9991 138 20.2794 138 20.5625C138 25.5884 130.71 30.1391 129 31.1375C127.288 30.14 120 25.5959 120 20.5625C120 20.2794 120.028 19.9991 120.084 19.7216V19.7216Z" fill="#E3DADA"/>
</g>
</g>
<defs>
<clipPath id="clip0_0_9">
<rect width="24" height="24" fill="white" transform="translate(117 11)"/>
</clipPath>
</defs>
</svg>
